<svg width="29" height="29" viewBox="0 0 29 29" xmlns="http://www.w3.org/2000/svg" xmlns:xlink="http://www.w3.org/1999/xlink">
<style>
.active {fill:#444}
</style>
    <defs>
        <path id="wfdw7v5gia" d="M0 0h19.435v16.349H0z"/>
    </defs>
    <g fill="none" fill-rule="evenodd">
        <path d="M29 14.5C29 22.508 22.508 29 14.5 29S0 22.508 0 14.5 6.492 0 14.5 0 29 6.492 29 14.5" class="active"/>
        <path d="M20.453 13.441a.764.764 0 1 0 0 1.529.764.764 0 0 0 0-1.529M9.054 13.441a.765.765 0 1 0 0 1.53.765.765 0 0 0 0-1.53M15.87 13.441a.765.765 0 1 0 0 1.53.765.765 0 0 0 0-1.53" fill="#FFF"/>
        <g transform="translate(5 7)">
            <mask id="k13aug78nb" fill="#fff">
                <use xlink:href="#wfdw7v5gia"/>
            </mask>
            <path d="M17.32 8.847c0 1.878-1.739 1.86-1.739 1.86h-.462V9.651h.287c.842 0 .758-.87.758-.87v-.277c-.37.481-1.045.453-1.045.453-1.656 0-1.637-1.765-1.637-1.765 0-1.895 1.683-1.824 1.683-1.824.657 0 .999.453.999.453V5.49h1.156v3.357zm-4.439-1.64c0 1.807-2.011 1.81-2.011 1.81-2.03 0-1.966-1.81-1.966-1.81 0-1.837 1.966-1.838 1.966-1.838 2.076 0 2.011 1.837 2.011 1.837zm-4.816-1.52v3.206H6.919V5.958c0-1.01-.543-.986-.543-.986V3.825c1.738 0 1.689 1.862 1.689 1.862zm-3.749 3.33c-.715 0-.999-.512-.999-.512v.388H2.115V3.936h1.19v1.886c.481-.468 1.011-.468 1.011-.468 1.616 0 1.677 1.813 1.677 1.813 0 1.788-1.677 1.85-1.677 1.85zM16.366 0H3.07A3.075 3.075 0 0 0 0 3.08v7.308a3.075 3.075 0 0 0 3.07 3.08h4.579l1.564 2.545s.016.03.05.072a.526.526 0 0 0 .907.004c.039-.046.053-.076.053-.076l1.563-2.545h4.58a3.075 3.075 0 0 0 3.069-3.08V3.08A3.075 3.075 0 0 0 16.366 0z" fill="#FFF" mask="url(#k13aug78nb)"/>
        </g>
    </g>
</svg>
