<svg xmlns="http://www.w3.org/2000/svg" width="29" height="29" viewBox="0 0 29 29">
    <g fill="none" fill-rule="evenodd">
        <g>
            <g>
                <g>
                    <g>
                        <path fill="#444" d="M29 14.5C29 22.508 22.508 29 14.5 29S0 22.508 0 14.5 6.492 0 14.5 0 29 6.492 29 14.5" transform="translate(-24 -8664) translate(0 8495) translate(24 169)"/>
                        <path fill="#FFF" d="M20.364 8.221C19.737 8.124 16.713 8 14.311 8s-5.425.124-6.054.221c-1.093.183-1.689.695-2.004 2.016C6.146 10.678 6 13.114 6 14.04v.205c0 .93.146 3.362.253 3.806.315 1.32.91 1.83 2.004 2.013.629.098 3.657.221 6.06.221l-.011.002c2.403 0 5.43-.125 6.058-.223 1.094-.183 1.689-.692 2.007-2.013.105-.444.252-2.876.252-3.806v-.204c0-.928-.147-3.363-.252-3.804-.318-1.324-.913-1.833-2.007-2.016" transform="translate(-24 -8664) translate(0 8495) translate(24 169)"/>
                        <path fill="#444" d="M13 12L16.985 14.169 13 16.442z" transform="translate(-24 -8664) translate(0 8495) translate(24 169)"/>
                    </g>
                </g>
            </g>
        </g>
    </g>
</svg>
